# xmcd
#
# Track frame offsets:
#	150
#	16200
#	39788
#	56078
#	68320
#	82494
#	94955
#	113155
#	129433
#	143342
#	162890
#	182867
#	201586
#	218082
#	233346
#	252037
#	269697
#	287807
#	309632
#	326055
#
# Disc length: 4555 seconds
#
# Revision: 0
# Processed by: cddbd v1.5.2PL0 Copyright (c) Steve Scherf et al.
# Submitted via: EasyCDDAExtractor 10.0.6.1
#
DISCID=1e11c914
DTITLE=Various Artist - Hannes Eder - My Choice, Einfach Gute Musik...
DYEAR=2007
DGENRE=R&B
TTITLE0=Amy Winehouse - Rehab
TTITLE1=Donavon Frankenreiter - Move By Yourself
TTITLE2=The Cardigans - Erase - Rewind
TTITLE3=DJ Shadow Feat. Chris James - You Made It
TTITLE4=Count Basic - Nobody Loves Me Better
TTITLE5=Nina Simone - Don't Let Me Be Misunderstood
TTITLE6=Binder and Krieglstein Feat. Makki and Uwe Bubik - Spit
TTITLE7=Alo feat.Jack Johnson - Girl, I Wanna Lay You Down
TTITLE8=Mika - Grace Kelly
TTITLE9=Pulp - Do You Remember The First Time
TTITLE10=Snow Patrol - Chasing Cars
TTITLE11=Razorlight - America
TTITLE12=Herbstrock - Schau Nicht Weg, Schau Her
TTITLE13=Kaiser Chiefs - Ruby
TTITLE14=Emilie Simon - Fleur De Saison
TTITLE15=Lamb - Softly
TTITLE16=Ayo - Down On My Knees
TTITLE17=David Holmes Presents The Free Association - Sugarman
TTITLE18=Naked Lunch - Military of The Heart
TTITLE19=Madeleine Peyroux - I'm All Right
EXTD=
EXTT0=
EXTT1=
EXTT2=
EXTT3=
EXTT4=
EXTT5=
EXTT6=
EXTT7=
EXTT8=
EXTT9=
EXTT10=
EXTT11=
EXTT12=
EXTT13=
EXTT14=
EXTT15=
EXTT16=
EXTT17=
EXTT18=
EXTT19=
PLAYORDER=
